<mxfile host="app.diagrams.net" agent="Mozilla/5.0 (Windows NT 10.0; Win64; x64) AppleWebKit/537.36 (KHTML, like Gecko) Chrome/132.0.0.0 Safari/537.36 OPR/117.0.0.0" version="26.1.1">
  <diagram name="Page-1" id="SWSL08nuxoEWp6VyN-dX">
    <mxGraphModel dx="1221" dy="783" grid="1" gridSize="10" guides="1" tooltips="1" connect="1" arrows="1" fold="1" page="1" pageScale="1" pageWidth="827" pageHeight="1169" math="0" shadow="0">
      <root>
        <mxCell id="0" />
        <mxCell id="1" parent="0" />
        <mxCell id="SdYrSxXmdD3QyGim_pIm-1" value="Korisnik" style="rounded=0;whiteSpace=wrap;html=1;" vertex="1" parent="1">
          <mxGeometry x="20" y="310" width="120" height="130" as="geometry" />
        </mxCell>
        <mxCell id="SdYrSxXmdD3QyGim_pIm-2" value="Stvaratelj oglasa" style="rounded=0;whiteSpace=wrap;html=1;" vertex="1" parent="1">
          <mxGeometry x="700" y="300" width="90" height="140" as="geometry" />
        </mxCell>
        <mxCell id="SdYrSxXmdD3QyGim_pIm-3" value="Zahtjev za stvaranje oglasa" style="text;html=1;align=center;verticalAlign=middle;whiteSpace=wrap;rounded=0;" vertex="1" parent="1">
          <mxGeometry x="510" y="310" width="170" height="30" as="geometry" />
        </mxCell>
        <mxCell id="SdYrSxXmdD3QyGim_pIm-4" value="Administrator" style="rounded=0;whiteSpace=wrap;html=1;" vertex="1" parent="1">
          <mxGeometry x="300" y="530" width="190" height="85" as="geometry" />
        </mxCell>
        <mxCell id="SdYrSxXmdD3QyGim_pIm-5" value="Zahtjev za brisanje oglasa" style="text;html=1;align=center;verticalAlign=middle;whiteSpace=wrap;rounded=0;" vertex="1" parent="1">
          <mxGeometry x="280" y="460" width="60" height="60" as="geometry" />
        </mxCell>
        <mxCell id="SdYrSxXmdD3QyGim_pIm-6" value="Prijavljeni kritični oglasi" style="text;html=1;align=center;verticalAlign=middle;whiteSpace=wrap;rounded=0;" vertex="1" parent="1">
          <mxGeometry x="450" y="450" width="60" height="70" as="geometry" />
        </mxCell>
        <mxCell id="SdYrSxXmdD3QyGim_pIm-7" value="Oglas" style="text;html=1;align=center;verticalAlign=middle;whiteSpace=wrap;rounded=0;" vertex="1" parent="1">
          <mxGeometry x="190" y="420" width="60" height="20" as="geometry" />
        </mxCell>
        <mxCell id="SdYrSxXmdD3QyGim_pIm-8" value="Zahtjev za pregled oglasa" style="text;html=1;align=center;verticalAlign=middle;whiteSpace=wrap;rounded=0;" vertex="1" parent="1">
          <mxGeometry x="170" y="310" width="100" height="30" as="geometry" />
        </mxCell>
        <mxCell id="SdYrSxXmdD3QyGim_pIm-9" value="Prijava kritičnog oglasa" style="text;html=1;align=center;verticalAlign=middle;whiteSpace=wrap;rounded=0;" vertex="1" parent="1">
          <mxGeometry x="170" y="370" width="100" height="30" as="geometry" />
        </mxCell>
        <mxCell id="SdYrSxXmdD3QyGim_pIm-10" value="Zahtjeva za uređivanje/brisanje oglasa" style="text;html=1;align=center;verticalAlign=middle;whiteSpace=wrap;rounded=0;" vertex="1" parent="1">
          <mxGeometry x="500" y="340" width="190" height="30" as="geometry" />
        </mxCell>
        <mxCell id="SdYrSxXmdD3QyGim_pIm-11" value="Zahtjev za prijavu/registraciju korisničkog računa" style="text;html=1;align=center;verticalAlign=middle;whiteSpace=wrap;rounded=0;" vertex="1" parent="1">
          <mxGeometry x="510" y="380" width="170" height="30" as="geometry" />
        </mxCell>
        <mxCell id="SdYrSxXmdD3QyGim_pIm-12" value="Podatci korisničkog računa" style="text;html=1;align=center;verticalAlign=middle;whiteSpace=wrap;rounded=0;" vertex="1" parent="1">
          <mxGeometry x="505" y="415" width="180" height="30" as="geometry" />
        </mxCell>
        <mxCell id="SdYrSxXmdD3QyGim_pIm-13" value="&lt;font style=&quot;font-size: 24px;&quot;&gt;Oglasi&lt;/font&gt;" style="rounded=0;whiteSpace=wrap;html=1;" vertex="1" parent="1">
          <mxGeometry x="300" y="310" width="180" height="130" as="geometry" />
        </mxCell>
        <mxCell id="SdYrSxXmdD3QyGim_pIm-14" value="" style="endArrow=none;html=1;rounded=0;exitX=0;exitY=0.25;exitDx=0;exitDy=0;entryX=1;entryY=0.25;entryDx=0;entryDy=0;" edge="1" parent="1" source="SdYrSxXmdD3QyGim_pIm-13" target="SdYrSxXmdD3QyGim_pIm-13">
          <mxGeometry width="50" height="50" relative="1" as="geometry">
            <mxPoint x="390" y="430" as="sourcePoint" />
            <mxPoint x="440" y="380" as="targetPoint" />
          </mxGeometry>
        </mxCell>
        <mxCell id="SdYrSxXmdD3QyGim_pIm-15" value="P0" style="text;html=1;align=center;verticalAlign=middle;whiteSpace=wrap;rounded=0;" vertex="1" parent="1">
          <mxGeometry x="360" y="310" width="60" height="30" as="geometry" />
        </mxCell>
        <mxCell id="SdYrSxXmdD3QyGim_pIm-16" value="" style="endArrow=classic;html=1;rounded=0;exitX=1;exitY=0.25;exitDx=0;exitDy=0;" edge="1" parent="1" source="SdYrSxXmdD3QyGim_pIm-1">
          <mxGeometry width="50" height="50" relative="1" as="geometry">
            <mxPoint x="390" y="420" as="sourcePoint" />
            <mxPoint x="300" y="343" as="targetPoint" />
          </mxGeometry>
        </mxCell>
        <mxCell id="SdYrSxXmdD3QyGim_pIm-17" value="" style="endArrow=classic;html=1;rounded=0;exitX=1;exitY=0.75;exitDx=0;exitDy=0;entryX=0;entryY=0.75;entryDx=0;entryDy=0;" edge="1" parent="1" source="SdYrSxXmdD3QyGim_pIm-1" target="SdYrSxXmdD3QyGim_pIm-13">
          <mxGeometry width="50" height="50" relative="1" as="geometry">
            <mxPoint x="440" y="370" as="sourcePoint" />
            <mxPoint x="390" y="420" as="targetPoint" />
          </mxGeometry>
        </mxCell>
        <mxCell id="SdYrSxXmdD3QyGim_pIm-18" value="" style="endArrow=classic;html=1;rounded=0;exitX=0;exitY=1;exitDx=0;exitDy=0;entryX=1;entryY=1;entryDx=0;entryDy=0;" edge="1" parent="1" source="SdYrSxXmdD3QyGim_pIm-13" target="SdYrSxXmdD3QyGim_pIm-1">
          <mxGeometry width="50" height="50" relative="1" as="geometry">
            <mxPoint x="440" y="370" as="sourcePoint" />
            <mxPoint x="390" y="420" as="targetPoint" />
          </mxGeometry>
        </mxCell>
        <mxCell id="SdYrSxXmdD3QyGim_pIm-19" value="" style="endArrow=classic;html=1;rounded=0;exitX=0;exitY=0.25;exitDx=0;exitDy=0;entryX=1.017;entryY=0.197;entryDx=0;entryDy=0;entryPerimeter=0;" edge="1" parent="1" source="SdYrSxXmdD3QyGim_pIm-2" target="SdYrSxXmdD3QyGim_pIm-13">
          <mxGeometry width="50" height="50" relative="1" as="geometry">
            <mxPoint x="440" y="370" as="sourcePoint" />
            <mxPoint x="390" y="420" as="targetPoint" />
          </mxGeometry>
        </mxCell>
        <mxCell id="SdYrSxXmdD3QyGim_pIm-20" value="" style="endArrow=classic;html=1;rounded=0;exitX=0;exitY=0.5;exitDx=0;exitDy=0;entryX=0;entryY=0.5;entryDx=0;entryDy=0;" edge="1" parent="1" source="SdYrSxXmdD3QyGim_pIm-2">
          <mxGeometry width="50" height="50" relative="1" as="geometry">
            <mxPoint x="390" y="420" as="sourcePoint" />
            <mxPoint x="480" y="370" as="targetPoint" />
          </mxGeometry>
        </mxCell>
        <mxCell id="SdYrSxXmdD3QyGim_pIm-21" value="" style="endArrow=classic;html=1;rounded=0;exitX=0;exitY=0.75;exitDx=0;exitDy=0;entryX=1;entryY=0.75;entryDx=0;entryDy=0;" edge="1" parent="1" source="SdYrSxXmdD3QyGim_pIm-2" target="SdYrSxXmdD3QyGim_pIm-13">
          <mxGeometry width="50" height="50" relative="1" as="geometry">
            <mxPoint x="390" y="420" as="sourcePoint" />
            <mxPoint x="440" y="370" as="targetPoint" />
          </mxGeometry>
        </mxCell>
        <mxCell id="SdYrSxXmdD3QyGim_pIm-22" value="" style="endArrow=classic;html=1;rounded=0;exitX=1;exitY=1;exitDx=0;exitDy=0;" edge="1" parent="1" source="SdYrSxXmdD3QyGim_pIm-13">
          <mxGeometry width="50" height="50" relative="1" as="geometry">
            <mxPoint x="390" y="420" as="sourcePoint" />
            <mxPoint x="699" y="440" as="targetPoint" />
          </mxGeometry>
        </mxCell>
        <mxCell id="SdYrSxXmdD3QyGim_pIm-23" value="" style="endArrow=classic;html=1;rounded=0;exitX=0.25;exitY=0;exitDx=0;exitDy=0;entryX=0.25;entryY=1;entryDx=0;entryDy=0;" edge="1" parent="1" source="SdYrSxXmdD3QyGim_pIm-4" target="SdYrSxXmdD3QyGim_pIm-13">
          <mxGeometry width="50" height="50" relative="1" as="geometry">
            <mxPoint x="390" y="430" as="sourcePoint" />
            <mxPoint x="440" y="380" as="targetPoint" />
          </mxGeometry>
        </mxCell>
        <mxCell id="SdYrSxXmdD3QyGim_pIm-24" value="" style="endArrow=classic;html=1;rounded=0;exitX=0.794;exitY=1.008;exitDx=0;exitDy=0;exitPerimeter=0;entryX=0.75;entryY=0;entryDx=0;entryDy=0;" edge="1" parent="1" source="SdYrSxXmdD3QyGim_pIm-13" target="SdYrSxXmdD3QyGim_pIm-4">
          <mxGeometry width="50" height="50" relative="1" as="geometry">
            <mxPoint x="390" y="430" as="sourcePoint" />
            <mxPoint x="440" y="380" as="targetPoint" />
          </mxGeometry>
        </mxCell>
      </root>
    </mxGraphModel>
  </diagram>
</mxfile>
